<svg width="150px" height="50px" viewBox="0 0 427 96" version="1.1">
  <g id="iAuditorLogo" stroke="none" stroke-width="1" fill="none" fill-rule="evenodd">
    <g id="iAuditor-by-Safetyculture-svg" fill-rule="nonzero">
      <path
        d="M125.356 15.431V4.922h10.989v10.51h-10.99zm0 47.376V20.97h11.075v41.789l-11.075.05zM182.786 62.758l-3.692-10.287h-21.055l-3.618 10.287h-12.133l20.723-54.144h10.78l21.386 54.144h-12.391zM168.51 22.876l-6.89 19.393h13.867l-6.977-19.393z"
        id="Shape" fill="#182C4F"></path>
      <path
        d="M218.336 63.988c-5.743 0-10.382-1.726-13.917-5.18a18.249 18.249 0 0 1-5.292-13.66V20.994h11.075V43.87a10.3 10.3 0 0 0 2.178 6.977 7.543 7.543 0 0 0 6.005 2.461 7.383 7.383 0 0 0 5.98-2.535 10.435 10.435 0 0 0 2.056-6.903V20.993h11.075V45.15a18.36 18.36 0 0 1-5.242 13.659c-3.487 3.454-8.126 5.18-13.918 5.18z"
        id="Path" fill="#182C4F"></path>
      <path
        d="M277.464 5.907h11.075v56.85h-8.146l-1.231-3.47a18.864 18.864 0 0 1-12.798 4.726 20.378 20.378 0 0 1-15.345-6.325 21.891 21.891 0 0 1-6.152-15.837 23.627 23.627 0 0 1 1.624-8.786 21.08 21.08 0 0 1 4.442-7.014 20.649 20.649 0 0 1 6.805-4.603 21.83 21.83 0 0 1 8.614-1.673 19.307 19.307 0 0 1 11.21 3.433l-.098-17.301zm-18.237 44.2c4.408 4.348 11.49 4.348 15.899 0a11.358 11.358 0 0 0 3.15-8.182 11.358 11.358 0 0 0-3.15-8.183c-4.408-4.348-11.49-4.348-15.899 0a11.333 11.333 0 0 0-3.15 8.207 11.309 11.309 0 0 0 3.15 8.159zM299.023 15.431V4.922h11.075v10.51h-11.075zm0 47.327V20.919h11.075v41.839h-11.075z"
        id="Shape" fill="#182C4F"></path>
      <path
        d="M340.566 52.754h5.021v10.004h-7.814a14.139 14.139 0 0 1-10.607-3.987c-2.6-2.658-3.897-6.305-3.889-10.94V30.062h-7.383v-2.46l16.12-17.585h2.104v10.927h11.247v9.07h-11.074v16.353a6.497 6.497 0 0 0 1.648 4.725 6.153 6.153 0 0 0 4.627 1.662z"
        id="Path" fill="#182C4F"></path>
      <path
        d="M372.105 63.988c-3.95.053-7.842-.94-11.284-2.879a20.686 20.686 0 0 1-7.912-7.937 22.544 22.544 0 0 1-2.855-11.272 22.531 22.531 0 0 1 2.855-11.32 20.427 20.427 0 0 1 7.912-7.901 23.651 23.651 0 0 1 22.531 0 20.6 20.6 0 0 1 7.962 7.912 22.617 22.617 0 0 1 2.867 11.31 22.544 22.544 0 0 1-2.867 11.271 20.833 20.833 0 0 1-7.937 7.937 22.31 22.31 0 0 1-11.272 2.88zm-7.863-13.83c4.335 4.268 11.293 4.268 15.628 0a11.42 11.42 0 0 0 3.064-8.258 11.444 11.444 0 0 0-3.064-8.257c-4.335-4.269-11.293-4.269-15.628 0a11.444 11.444 0 0 0-3.064 8.257 11.42 11.42 0 0 0 3.064 8.257z"
        id="Shape" fill="#182C4F"></path>
      <path
        d="M422.89 20.76h3.618v10.668h-4.762c-3.09 0-5.316.75-6.658 2.252-1.341 1.501-2.005 3.962-2.005 7.383v21.695h-11.075V20.919h7.038l1.957 5.218a14.188 14.188 0 0 1 11.887-5.378z"
        id="Path" fill="#182C4F"></path>
      <path
        d="M41.986 93.632a6.965 6.965 0 0 0 9.402.406l.418-.381c.135-.135.258-.283.382-.418l41.026-41.027.418-.369a6.965 6.965 0 0 0-9.5-10.177l-42.576 42.54-4.492 4.492 4.922 4.934z"
        id="Path" fill="#00DAFF"></path>
      <path d="M22.15 73.747l14.914 14.95 9.844-9.844L31.994 63.89a6.965 6.965 0 1 0-9.844 9.844v.013z" id="Path"
        fill="#5A59FF"></path>
      <path
        d="M53.689 2.043a6.965 6.965 0 0 0-9.39-.419l-.418.382a6.15 6.15 0 0 0-.381.418L2.46 43.451l-.418.381a6.965 6.965 0 0 0 9.5 10.177l42.601-42.553 4.492-4.491-4.947-4.922z"
        id="Path" fill="#FFD701"></path>
      <path d="M73.562 21.916L58.611 6.965l-9.844 9.844 14.95 14.964a6.965 6.965 0 0 0 9.845-9.845v-.012z" id="Path"
        fill="#0AAD69"></path>
      <path
        d="M131.669 77.045a6.3 6.3 0 0 1 3.187.812 5.685 5.685 0 0 1 2.19 2.227 6.46 6.46 0 0 1 .788 3.2 6.153 6.153 0 0 1-1.748 4.466 5.919 5.919 0 0 1-4.417 1.772 6.263 6.263 0 0 1-2.56-.516 5.98 5.98 0 0 1-2.043-1.44l-.32 1.698h-1.452V73.033h1.883v5.784a5.968 5.968 0 0 1 2.03-1.293 6.251 6.251 0 0 1 2.462-.48zm-3.298 9.389a4.565 4.565 0 0 0 6.3 0 4.64 4.64 0 0 0 0-6.325 4.27 4.27 0 0 0-3.138-1.23 4.48 4.48 0 0 0-3.162 7.58v-.025z"
        id="Shape" fill="#182C4F"></path>
      <path
        d="M149.536 77.303h2.006l-5.698 12.453a8.11 8.11 0 0 1-1.993 2.953 4.073 4.073 0 0 1-2.695.825h-1.12v-1.71h.96a2.867 2.867 0 0 0 1.797-.48 6.017 6.017 0 0 0 1.329-2.006l.43-.886-5.316-11.149h2.055l4.246 9.057 4-9.057zM164.893 89.46a6.153 6.153 0 0 1-4.147-1.353 4.528 4.528 0 0 1-1.575-3.618h2.03a2.707 2.707 0 0 0 1.047 2.24 4.122 4.122 0 0 0 2.67.824 4.172 4.172 0 0 0 2.461-.726 2.301 2.301 0 0 0 .997-1.944 2.006 2.006 0 0 0-.086-.554 2.067 2.067 0 0 0-.173-.467 1.083 1.083 0 0 0-.307-.382 4.048 4.048 0 0 0-.382-.32 1.981 1.981 0 0 0-.492-.258l-.517-.222-.615-.184-.615-.16-.665-.172a15.419 15.419 0 0 1-2.842-.874 3.52 3.52 0 0 1-2.154-2.695 6.498 6.498 0 0 1 0-.714 3.864 3.864 0 0 1 1.428-3.162 5.919 5.919 0 0 1 3.851-1.157 5.488 5.488 0 0 1 3.79 1.23 4.32 4.32 0 0 1 1.39 3.36h-1.931a2.461 2.461 0 0 0-.923-1.993 3.692 3.692 0 0 0-2.375-.739 4.049 4.049 0 0 0-2.363.64 2.006 2.006 0 0 0-.923 1.723c-.003.226.035.451.111.664.074.183.17.356.283.517.135.167.297.308.48.419.18.122.37.229.566.32.243.112.494.207.75.283.296.098.555.16.764.221l.837.197c.965.219 1.912.515 2.83.886a3.692 3.692 0 0 1 2.276 2.67c.06.3.089.605.086.91a4.295 4.295 0 0 1-.726 2.462c-.491.7-1.169 1.25-1.956 1.587a7.15 7.15 0 0 1-2.88.542z"
        id="Path" fill="#182C4F"></path>
      <path
        d="M184.065 77.303h1.502v11.96h-1.55l-.21-1.82a5.747 5.747 0 0 1-2.043 1.538 6.485 6.485 0 0 1-2.645.541 6.239 6.239 0 0 1-3.163-.812 5.784 5.784 0 0 1-2.215-2.24 6.362 6.362 0 0 1-.812-3.187 6.153 6.153 0 0 1 1.809-4.466 5.98 5.98 0 0 1 4.417-1.772 6.35 6.35 0 0 1 2.658.553 5.833 5.833 0 0 1 2.068 1.539l.184-1.834zm-7.961 9.143a4.578 4.578 0 0 0 6.3 0 4.64 4.64 0 0 0 0-6.325 4.467 4.467 0 0 0-6.3 6.325z"
        id="Shape" fill="#182C4F"></path>
      <path
        d="M196.31 77.39v1.574h-3.692v10.3h-1.883v-10.3h-2.338V77.39h2.338v-.972a3.322 3.322 0 0 1 3.84-3.815h1.685v1.526h-1.354a2.56 2.56 0 0 0-1.82.53 2.461 2.461 0 0 0-.542 1.796v.935h3.765z"
        id="Path" fill="#182C4F"></path>
      <path
        d="M209.82 83.333v.676h-10.225a4.073 4.073 0 0 0 4.208 3.692 4.295 4.295 0 0 0 2.19-.554 3.925 3.925 0 0 0 1.527-1.513h1.993a6.411 6.411 0 0 1-2.264 2.88 6.005 6.005 0 0 1-3.446 1.02 6.153 6.153 0 0 1-3.113-.812 5.722 5.722 0 0 1-2.19-2.24 6.756 6.756 0 0 1 0-6.373 5.808 5.808 0 0 1 2.19-2.24 6.153 6.153 0 0 1 3.113-.812 5.993 5.993 0 0 1 3.15.837 5.734 5.734 0 0 1 2.13 2.276c.495.98.748 2.065.738 3.163zm-6.017-4.504a4.085 4.085 0 0 0-4.171 3.433h8.33a4.085 4.085 0 0 0-1.415-2.461 4.135 4.135 0 0 0-2.744-.972z"
        id="Shape" fill="#182C4F"></path>
      <path
        d="M218.028 87.517h1.231v1.747h-1.452a4.085 4.085 0 0 1-3.052-1.12 4.184 4.184 0 0 1-1.107-3.064v-6.079h-2.105v-.332l3.692-3.9h.295v2.534h3.754v1.698h-3.754v6.018c-.05.683.186 1.356.653 1.858.505.451 1.17.681 1.845.64zM231.134 77.303h2.006l-5.698 12.453a8.11 8.11 0 0 1-1.993 2.953 4.098 4.098 0 0 1-2.72.813h-1.12v-1.699h.96a2.867 2.867 0 0 0 1.797-.48 6.017 6.017 0 0 0 1.329-2.005l.43-.886-5.316-11.149h2.055l4.246 9.057 4.024-9.057zM242.91 89.498a8.17 8.17 0 0 1-4.098-1.022 7.223 7.223 0 0 1-2.83-2.842 8.835 8.835 0 0 1 0-8.245 7.383 7.383 0 0 1 2.83-2.855 8.294 8.294 0 0 1 4.098-1.021 7.654 7.654 0 0 1 4.676 1.55 7.113 7.113 0 0 1 2.658 4h-1.981a5.242 5.242 0 0 0-2.03-2.634 5.882 5.882 0 0 0-3.323-.947 5.697 5.697 0 0 0-4.282 1.71 6.534 6.534 0 0 0 0 8.762 6.153 6.153 0 0 0 7.678.689 5.464 5.464 0 0 0 2.043-2.793h1.969a7.223 7.223 0 0 1-2.658 4.171 7.556 7.556 0 0 1-4.75 1.477zM258.636 89.522a4.922 4.922 0 0 1-5.303-5.303v-6.916h1.883v6.608a4 4 0 0 0 .922 2.781 3.175 3.175 0 0 0 2.462 1.01 3.138 3.138 0 0 0 2.46-1.022 3.95 3.95 0 0 0 .911-2.769v-6.608h1.883v6.916a5.218 5.218 0 0 1-1.44 3.851 5.144 5.144 0 0 1-3.778 1.452zM268.075 89.264V73.033h1.895v16.23zM279.26 87.517h1.305v1.747h-1.55a4.11 4.11 0 0 1-3.052-1.12 4.184 4.184 0 0 1-1.108-3.064v-6.079h-2.104v-.332l3.692-3.9h.283v2.534h3.753v1.698h-3.753v6.018c-.051.683.185 1.356.652 1.858.514.46 1.194.692 1.882.64zM288.723 89.522a4.922 4.922 0 0 1-5.291-5.303v-6.916h1.883v6.608c-.054 1.008.27 2 .91 2.781a3.593 3.593 0 0 0 5.009 0c.64-.776.965-1.764.91-2.769v-6.62h1.883v6.916a4.922 4.922 0 0 1-5.304 5.303zM303.638 77.241h1.07v1.785h-1.23a3.187 3.187 0 0 0-2.461.997 3.9 3.9 0 0 0-.899 2.744v6.497h-1.895V77.303h1.341l.296 1.821a4.356 4.356 0 0 1 3.778-1.883z"
        id="Path" fill="#182C4F"></path>
      <path
        d="M318.072 83.333v.676H307.87a4.06 4.06 0 0 0 1.366 2.67 4.184 4.184 0 0 0 2.842 1.01 4.32 4.32 0 0 0 2.19-.554 4 4 0 0 0 1.526-1.514h1.994a6.411 6.411 0 0 1-2.264 2.88 6.35 6.35 0 0 1-6.56.21 5.833 5.833 0 0 1-2.202-2.24 6.842 6.842 0 0 1 0-6.375 5.919 5.919 0 0 1 2.203-2.24 6.153 6.153 0 0 1 3.113-.811 5.993 5.993 0 0 1 3.15.836 5.734 5.734 0 0 1 2.13 2.277c.489.986.733 2.074.713 3.175zm-6.017-4.504a4.06 4.06 0 0 0-4.172 3.433h8.368a4.024 4.024 0 0 0-4.135-3.433h-.061z"
        id="Shape" fill="#182C4F"></path>
    </g>
  </g>
</svg>